<svg width="32" height="24" viewBox="0 0 32 24" fill="none" xmlns="http://www.w3.org/2000/svg">
<path opacity="0.25" d="M22.7179 5.76147C27.7311 5.76147 31.7951 9.56469 31.7951 14.5718C31.7951 17.2657 30.7195 19.5165 28.9943 21.0693C28.8899 21.1625 28.8063 21.2767 28.749 21.4044C28.6916 21.5321 28.6618 21.6705 28.6615 21.8105V23.2634C28.6614 23.386 28.6306 23.5066 28.5717 23.6141C28.5128 23.7216 28.4278 23.8125 28.3245 23.8785C28.2212 23.9445 28.103 23.9835 27.9807 23.9918C27.8584 24.0001 27.736 23.9774 27.6247 23.926L26.0679 23.2058C25.7496 23.0606 25.3916 23.0269 25.0518 23.1103C24.2871 23.2919 23.5037 23.3831 22.7177 23.382C17.0294 23.382 13.6406 19.4376 13.6406 14.5718C13.6408 9.48393 17.7047 5.76147 22.7179 5.76147Z" fill="#FCFCFD"/>
<path d="M25.5489 11.9399H23.2242V11.527C23.2242 11.3931 23.171 11.2646 23.0763 11.1699C22.9816 11.0752 22.8531 11.022 22.7192 11.022C22.5852 11.022 22.4568 11.0752 22.3621 11.1699C22.2673 11.2646 22.2141 11.3931 22.2141 11.527V11.9399H19.8895C19.8224 11.9387 19.7557 11.9508 19.6933 11.9756C19.631 12.0004 19.5742 12.0374 19.5263 12.0845C19.4784 12.1315 19.4403 12.1876 19.4143 12.2494C19.3884 12.3113 19.375 12.3778 19.375 12.4449C19.375 12.512 19.3884 12.5784 19.4143 12.6403C19.4403 12.7022 19.4784 12.7583 19.5263 12.8053C19.5742 12.8523 19.631 12.8893 19.6933 12.9141C19.7557 12.939 19.8224 12.9511 19.8895 12.9498H20.4523C20.6716 14.0896 21.2757 15.0759 22.033 15.9533C21.5612 16.4242 21.0558 16.8618 20.5699 17.2796C20.0767 17.7034 20.793 18.4136 21.2829 17.9925C21.7601 17.5822 22.2528 17.1493 22.7194 16.6861C23.1857 17.1493 23.6785 17.5822 24.1559 17.9925C24.6464 18.4129 25.362 17.7034 24.8688 17.2796C24.3831 16.8618 23.8775 16.4242 23.4057 15.9533C24.1622 15.0759 24.7671 14.0896 24.9864 12.9498H25.5493C25.6164 12.9511 25.683 12.939 25.7454 12.9141C25.8078 12.8893 25.8645 12.8523 25.9124 12.8053C25.9603 12.7583 25.9984 12.7022 26.0244 12.6403C26.0503 12.5784 26.0637 12.512 26.0637 12.4449C26.0637 12.3778 26.0503 12.3113 26.0244 12.2494C25.9984 12.1876 25.9603 12.1315 25.9124 12.0845C25.8645 12.0374 25.8078 12.0004 25.7454 11.9756C25.683 11.9508 25.6164 11.9387 25.5493 11.9399H25.5489ZM22.7192 15.2074C22.1598 14.5359 21.7079 13.7939 21.4869 12.9498H23.9518C23.7305 13.7939 23.2785 14.5359 22.7192 15.2074Z" fill="#FCFCFD"/>
<path opacity="0.25" d="M10.0771 0C5.06406 0 1 3.80304 1 8.81028C1 11.5041 2.07562 13.755 3.80082 15.3078C3.90515 15.4011 3.9887 15.5153 4.04604 15.643C4.10338 15.7707 4.13323 15.909 4.13366 16.049V17.5018C4.13366 17.6244 4.16452 17.745 4.2234 17.8525C4.28227 17.96 4.36727 18.051 4.47056 18.117C4.57385 18.183 4.6921 18.222 4.8144 18.2303C4.93671 18.2386 5.05914 18.216 5.17039 18.1645L6.72671 17.4441C7.04505 17.299 7.40301 17.2655 7.74277 17.3488C8.50758 17.5303 9.29103 17.6215 10.0771 17.6206C15.7654 17.6206 19.1543 13.676 19.1543 8.81028C19.1536 3.72245 15.0896 0 10.0771 0Z" fill="#FCFCFD"/>
<path d="M13.072 11.9177L10.6871 5.44788C10.6411 5.32314 10.5579 5.21551 10.4488 5.13948C10.3397 5.06346 10.21 5.02271 10.077 5.02271C9.94405 5.02271 9.81428 5.06346 9.7052 5.13948C9.59611 5.21551 9.51296 5.32314 9.46693 5.44788L7.08198 11.9177C7.05382 11.9941 7.04452 12.0762 7.0549 12.157C7.06528 12.2377 7.09502 12.3148 7.14159 12.3816C7.18815 12.4484 7.25017 12.5029 7.32236 12.5406C7.39455 12.5783 7.47478 12.598 7.55621 12.598H7.61682C7.72205 12.5979 7.82465 12.5651 7.9103 12.5039C7.99594 12.4428 8.06035 12.3564 8.09454 12.2569L8.55002 10.93C8.57402 10.9335 11.6028 10.9356 11.6052 10.9356L12.0595 12.2569C12.0937 12.3564 12.1581 12.4428 12.2438 12.504C12.3295 12.5651 12.4321 12.598 12.5374 12.598H12.598C12.6794 12.598 12.7596 12.5783 12.8318 12.5406C12.904 12.503 12.966 12.4484 13.0126 12.3816C13.0591 12.3148 13.0889 12.2377 13.0992 12.1569C13.1096 12.0762 13.1002 11.9941 13.072 11.9177ZM8.89566 9.92519L9.95797 6.83287C9.96653 6.80812 9.9826 6.78665 10.0039 6.77145C10.0253 6.75625 10.0508 6.74809 10.077 6.74809C10.1032 6.74809 10.1287 6.75625 10.1501 6.77145C10.1714 6.78665 10.1875 6.80812 10.196 6.83287L11.2584 9.92519H8.89566Z" fill="#FCFCFD"/>
<path d="M13.6953 14.7141C13.6933 15.5045 13.7868 16.2922 13.9737 17.0601C17.3106 15.7168 19.2071 12.593 19.2071 8.95271C19.2091 8.19145 19.1149 7.43299 18.9268 6.69531C15.8357 8.04859 13.6953 11.0218 13.6953 14.7141Z" fill="#161616"/>
</svg>
